<?xml version="1.0" encoding="utf-8"?>
<!-- Generator: Adobe Illustrator 22.1.0, SVG Export Plug-In . SVG Version: 6.00 Build 0)  -->
<svg version="1.1" id="Layer_1" xmlns="http://www.w3.org/2000/svg" xmlns:xlink="http://www.w3.org/1999/xlink" x="0px" y="0px"
	 viewBox="0 0 800 250" style="enable-background:new 0 0 800 250;" xml:space="preserve">
<style type="text/css">
	.st0{fill:#FFFFFF;stroke:#000000;}
	.st1{stroke:#000000;}
	.st2{fill:none;stroke:#000000;stroke-miterlimit:10;}
	.st3{font-family:'ArialRoundedMTBold';}
	.st4{font-size:17.0333px;}
	.st5{stroke:#000000;stroke-miterlimit:10;}
</style>
<ellipse pointer-events="none" class="st0" cx="375.7" cy="16.9" rx="5.3" ry="5.3"/>
<ellipse pointer-events="none" class="st0" cx="145.9" cy="104.6" rx="5.3" ry="5.3"/>
<ellipse pointer-events="none" class="st0" cx="322.3" cy="104.6" rx="5.3" ry="5.3"/>
<ellipse pointer-events="none" class="st0" cx="476.1" cy="103.9" rx="5.3" ry="5.3"/>
<ellipse pointer-events="none" class="st0" cx="657.9" cy="104.6" rx="5.3" ry="5.3"/>
<ellipse pointer-events="none" class="st0" cx="37.9" cy="190.1" rx="5.3" ry="5.3"/>
<ellipse pointer-events="none" class="st0" cx="113.8" cy="190.1" rx="5.3" ry="5.3"/>
<ellipse pointer-events="none" class="st0" cx="242.1" cy="190.1" rx="5.3" ry="5.3"/>
<ellipse pointer-events="none" class="st0" cx="311.6" cy="190.1" rx="5.3" ry="5.3"/>
<ellipse pointer-events="none" class="st0" cx="448.3" cy="189.4" rx="5.3" ry="5.3"/>
<ellipse pointer-events="none" class="st0" cx="539.2" cy="189.4" rx="5.3" ry="5.3"/>
<ellipse pointer-events="none" class="st0" cx="620" cy="190.1" rx="5.3" ry="5.3"/>
<ellipse pointer-events="none" class="st0" cx="700.7" cy="190.1" rx="5.3" ry="5.3"/>
<rect x="151.2" y="184.7" pointer-events="none" class="st1" width="10.7" height="10.7"/>
<rect x="183.3" y="184.7" pointer-events="none" class="st1" width="10.7" height="10.7"/>
<rect x="349" y="184.7" pointer-events="none" class="st1" width="10.7" height="10.7"/>
<rect x="403.4" y="184.1" pointer-events="none" class="st1" width="10.7" height="10.7"/>
<rect x="381.1" y="184.7" pointer-events="none" class="st1" width="10.7" height="10.7"/>
<rect x="485.7" y="184.1" pointer-events="none" class="st0" width="10.7" height="10.7"/>
<rect x="655.8" y="184.7" pointer-events="none" class="st1" width="10.7" height="10.7"/>
<rect x="732.8" y="183.7" pointer-events="none" class="st0" width="10.7" height="10.7"/>
<path pointer-events="none" class="st2" d="M150.2,100.3l220.2-83.4"/>
<path pointer-events="none" class="st2" d="M326.6,100.3l49.1-78.1"/>
<path pointer-events="none" class="st2" d="M471.8,99.6l-96.1-77.4"/>
<path pointer-events="none" class="st2" d="M653.7,100.3L381.1,16.9"/>
<path pointer-events="none" class="st2" d="M37.9,184.7l103.7-75.9"/>
<path pointer-events="none" class="st2" d="M113.8,184.7l32.1-74.8"/>
<path pointer-events="none" class="st2" d="M156.6,184.7l-10.7-74.8"/>
<path pointer-events="none" class="st2" d="M188.6,184.7l-38.5-75.9"/>
<path pointer-events="none" class="st2" d="M242.1,184.7l75.9-75.9"/>
<path pointer-events="none" class="st2" d="M311.6,184.7l10.7-74.8"/>
<path pointer-events="none" class="st2" d="M354.4,184.7l-32.1-74.8"/>
<path pointer-events="none" class="st2" d="M386.4,184.7l-59.9-75.9"/>
<path pointer-events="none" class="st2" d="M408.8,184.1l63.1-75.9"/>
<path pointer-events="none" class="st2" d="M448.3,184.1l27.8-74.8"/>
<path pointer-events="none" class="st2" d="M491.1,184.1l-10.7-75.9"/>
<path pointer-events="none" class="st2" d="M539.2,184.1l-58.8-75.9"/>
<path pointer-events="none" class="st2" d="M620,184.7l37.9-74.8"/>
<path pointer-events="none" class="st2" d="M661.1,184.7l-3.2-74.8"/>
<path pointer-events="none" class="st2" d="M700.7,184.7l-38.5-75.9"/>
<path pointer-events="none" class="st2" d="M738.1,183.7l-75.9-74.8"/>
<rect x="8" y="227.5" pointer-events="none" class="st0" width="10.7" height="10.7"/>
<rect x="24" y="227.5" pointer-events="none" class="st0" width="10.7" height="10.7"/>
<rect x="40.1" y="227.5" pointer-events="none" class="st1" width="10.7" height="10.7"/>
<rect x="56.1" y="227.5" pointer-events="none" class="st0" width="10.7" height="10.7"/>
<rect x="82.8" y="227.5" pointer-events="none" class="st0" width="10.7" height="10.7"/>
<rect x="99.9" y="227.5" pointer-events="none" class="st0" width="10.7" height="10.7"/>
<rect x="116" y="227.5" pointer-events="none" class="st0" width="10.7" height="10.7"/>
<rect x="132" y="227.5" pointer-events="none" class="st1" width="10.7" height="10.7"/>
<rect x="207.9" y="227.5" pointer-events="none" class="st0" width="10.7" height="10.7"/>
<rect x="224" y="227.5" pointer-events="none" class="st0" width="10.7" height="10.7"/>
<rect x="240" y="227.5" pointer-events="none" class="st1" width="10.7" height="10.7"/>
<rect x="256" y="227.5" pointer-events="none" class="st0" width="10.7" height="10.7"/>
<rect x="280.6" y="227.5" pointer-events="none" class="st0" width="10.7" height="10.7"/>
<rect x="296.7" y="227.5" pointer-events="none" class="st0" width="10.7" height="10.7"/>
<rect x="312.7" y="227.5" pointer-events="none" class="st0" width="10.7" height="10.7"/>
<rect x="328.7" y="227.5" pointer-events="none" class="st1" width="10.7" height="10.7"/>
<rect x="415.2" y="226.8" pointer-events="none" class="st1" width="10.7" height="10.7"/>
<rect x="431.2" y="226.8" pointer-events="none" class="st0" width="10.7" height="10.7"/>
<rect x="447.2" y="226.8" pointer-events="none" class="st0" width="10.7" height="10.7"/>
<rect x="463.3" y="226.8" pointer-events="none" class="st0" width="10.7" height="10.7"/>
<rect x="515.6" y="226.8" pointer-events="none" class="st1" width="10.7" height="10.7"/>
<rect x="531.7" y="226.8" pointer-events="none" class="st0" width="10.7" height="10.7"/>
<rect x="547.7" y="226.8" pointer-events="none" class="st0" width="10.7" height="10.7"/>
<rect x="563.7" y="226.8" pointer-events="none" class="st0" width="10.7" height="10.7"/>
<rect x="589.4" y="227.8" pointer-events="none" class="st0" width="10.7" height="10.7"/>
<rect x="605.3" y="227.8" pointer-events="none" class="st1" width="10.7" height="10.7"/>
<rect x="621.1" y="227.5" pointer-events="none" class="st0" width="10.7" height="10.7"/>
<rect x="636.6" y="227.5" pointer-events="none" class="st0" width="10.7" height="10.7"/>
<rect x="672.9" y="227.5" pointer-events="none" class="st0" width="10.7" height="10.7"/>
<rect x="688.9" y="227.5" pointer-events="none" class="st1" width="10.7" height="10.7"/>
<rect x="705" y="227.5" pointer-events="none" class="st0" width="10.7" height="10.7"/>
<rect x="721" y="227.5" pointer-events="none" class="st0" width="10.7" height="10.7"/>
<path pointer-events="none" class="st2" d="M13.3,227.5l20.3-33.1"/>
<path pointer-events="none" class="st2" d="M29.4,227.5l8.6-32.1"/>
<path pointer-events="none" class="st2" d="M45.4,227.5l-3.2-33.1"/>
<path pointer-events="none" class="st2" d="M61.4,227.5l-18.2-37.4"/>
<path pointer-events="none" class="st2" d="M88.2,227.5l21.4-33.1"/>
<path pointer-events="none" class="st2" d="M105.3,227.5l8.6-32.1"/>
<path pointer-events="none" class="st2" d="M121.3,227.5l-3.2-33.1"/>
<path pointer-events="none" class="st2" d="M137.3,227.5l-18.2-37.4"/>
<path pointer-events="none" class="st2" d="M213.3,227.5l24.6-33.1"/>
<path pointer-events="none" class="st2" d="M229.3,227.5l12.8-32.1"/>
<path pointer-events="none" class="st2" d="M245.4,227.5l1.1-33.1"/>
<path pointer-events="none" class="st2" d="M261.4,227.5l-13.9-37.4"/>
<path pointer-events="none" class="st2" d="M286,227.5l21.4-33.1"/>
<path pointer-events="none" class="st2" d="M302,227.5l5.3-33.1"/>
<path pointer-events="none" class="st2" d="M318,227.5l-6.4-32.1"/>
<path pointer-events="none" class="st2" d="M331.9,227.5l-16-33.1"/>
<path pointer-events="none" class="st2" d="M420.5,226.8l23.5-33.1"/>
<path pointer-events="none" class="st2" d="M436.6,226.8l11.8-32.1"/>
<path pointer-events="none" class="st2" d="M452.6,226.8l-4.3-32.1"/>
<path pointer-events="none" class="st2" d="M468.6,226.8l-16-33.1"/>
<path pointer-events="none" class="st2" d="M521,226.8l18.2-32.1"/>
<path pointer-events="none" class="st2" d="M537,226.8l2.1-32.1"/>
<path pointer-events="none" class="st2" d="M550.9,226.8l-7.5-33.1"/>
<path pointer-events="none" class="st2" d="M569.1,226.8l-24.6-37.4"/>
<path pointer-events="none" class="st2" d="M594.3,227.5l21.4-33.1"/>
<path pointer-events="none" class="st2" d="M610.4,227.5l9.6-32.1"/>
<path pointer-events="none" class="st2" d="M626.4,227.5l-2.1-33.1"/>
<path pointer-events="none" class="st2" d="M642.4,227.5l-17.1-37.4"/>
<path pointer-events="none" class="st2" d="M678.2,227.5l18.2-33.1"/>
<path pointer-events="none" class="st2" d="M694.3,227.5l6.4-32.1"/>
<path pointer-events="none" class="st2" d="M710.3,227.5l-5.3-33.1"/>
<path pointer-events="none" class="st2" d="M726.3,227.5L706,190.1"/>
<g transform="translate(759.5,3.5)">
	<text transform="matrix(1 0 0 1 1.6893 29.1221)" class="st3 st4">8X8</text>
</g>
<g transform="translate(759.5,83.5)">
	<text transform="matrix(1 0 0 1 1.6883 28.2051)" class="st3 st4">4X4</text>
</g>
<g transform="translate(759.5,162.5)">
	<text transform="matrix(1 0 0 1 1.6883 34.3721)" class="st3 st4">2X2</text>
</g>
<path pointer-events="none" class="st2" d="M792,219.1L792,219.1"/>
<path pointer-events="none" class="st5" d="M792,219.1L792,219.1L792,219.1L792,219.1z"/>
<g transform="translate(759.5,162.5)">
	<text transform="matrix(1 0 0 1 1.6891 75)" class="st3 st4">1X1</text>
</g>
</svg>
